<svg xmlns="http://www.w3.org/2000/svg" viewBox="0 0 278.44 27.15"><defs><style>.cls-1{fill:#fff;fill-rule:evenodd;}</style></defs><g id="Layer_2" data-name="Layer 2"><g id="Layer_1-2" data-name="Layer 1"><path class="cls-1" d="M11.32,14.2a2.48,2.48,0,0,0-.87-.54,3.16,3.16,0,0,0-.59-.16l.24-.09a1.79,1.79,0,0,0,1-1.09,3.1,3.1,0,0,0,0-1.84,2.37,2.37,0,0,0-.4-.71,2.28,2.28,0,0,0-.61-.48A2.7,2.7,0,0,0,9.36,9a4.84,4.84,0,0,0-.83-.13,7.46,7.46,0,0,0-.85,0H.12A.12.12,0,0,0,0,9v.81a.12.12,0,0,0,.12.12H2v7.93H.12a.12.12,0,0,0-.12.12v.8a.12.12,0,0,0,.12.12H7.8c.4,0,.75,0,1.07,0a7.19,7.19,0,0,0,1-.15,3.52,3.52,0,0,0,.86-.31,2.1,2.1,0,0,0,.68-.52,2.39,2.39,0,0,0,.45-.76,3.43,3.43,0,0,0,0-2.07A2.62,2.62,0,0,0,11.32,14.2ZM8.87,12.92a6.92,6.92,0,0,1-1.51.14H3.15V9.89H7.36A7.05,7.05,0,0,1,8.5,10a4.27,4.27,0,0,1,.79.18,1.52,1.52,0,0,1,.48.26,1,1,0,0,1,.26.31,1.09,1.09,0,0,1,.12.36,2.47,2.47,0,0,1,0,.39,2,2,0,0,1-.09.62,1,1,0,0,1-.36.49A2.62,2.62,0,0,1,8.87,12.92ZM3.19,14.08H7.65a7.82,7.82,0,0,1,1.46.12,2.8,2.8,0,0,1,1,.35,1.45,1.45,0,0,1,.54.59,2,2,0,0,1,.18.89,2.12,2.12,0,0,1-.15.83,1.16,1.16,0,0,1-.48.53,2.66,2.66,0,0,1-.94.31,8.58,8.58,0,0,1-1.48.1H3.2V14.08Z"/><path class="cls-1" d="M28.87,8.83h-5a.12.12,0,0,0-.12.12v.8a.12.12,0,0,0,.12.12h1.92v5.85a1.73,1.73,0,0,1-.24.87,2.11,2.11,0,0,1-.73.73,4.3,4.3,0,0,1-1.23.5,7,7,0,0,1-1.71.19,6.59,6.59,0,0,1-1.72-.19,4.14,4.14,0,0,1-1.23-.5,2.31,2.31,0,0,1-.73-.73,1.7,1.7,0,0,1-.24-.87V9.87h1.92A.12.12,0,0,0,20,9.75V9a.12.12,0,0,0-.12-.12h-5a.12.12,0,0,0-.12.12v.8a.12.12,0,0,0,.12.12h1.92v5.79a3,3,0,0,0,.32,1.39,3,3,0,0,0,1,1.07,4.8,4.8,0,0,0,1.58.69,9.15,9.15,0,0,0,2.19.23,9.2,9.2,0,0,0,2.19-.23,4.8,4.8,0,0,0,1.58-.69,3,3,0,0,0,1-1.08A2.91,2.91,0,0,0,27,15.65V9.86h1.92A.12.12,0,0,0,29,9.74v-.8A.15.15,0,0,0,28.87,8.83Z"/><path class="cls-1" d="M44.77,17.8h-2l-2.55-3.3a3.1,3.1,0,0,0,1.73-.9,2.63,2.63,0,0,0,.61-1.83,3,3,0,0,0-.24-1.28,2.22,2.22,0,0,0-.78-.93A3.61,3.61,0,0,0,40.18,9a10,10,0,0,0-1.94-.17H31.33a.12.12,0,0,0-.12.12v.8a.12.12,0,0,0,.12.12h1.92v7.93H31.33a.12.12,0,0,0-.12.12v.8a.12.12,0,0,0,.12.12h5a.12.12,0,0,0,.12-.12v-.8a.12.12,0,0,0-.12-.12H34.38V14.68h4.08l.54,0,2.37,3.15h-1.3a.12.12,0,0,0-.12.12v.79a.12.12,0,0,0,.12.12h4.68a.12.12,0,0,0,.12-.12v-.8C44.9,17.86,44.84,17.8,44.77,17.8ZM34.4,9.93h2.91c.82,0,1.46,0,2,.07a4.07,4.07,0,0,1,1.24.28,1.26,1.26,0,0,1,.64.55,2,2,0,0,1,.19.95,2.19,2.19,0,0,1-.18,1,1.31,1.31,0,0,1-.65.54,4.34,4.34,0,0,1-1.26.27c-.5,0-1.15.07-2,.07H34.4Z"/><path class="cls-1" d="M61.56,8.83h-5a.12.12,0,0,0-.12.12v.8a.12.12,0,0,0,.12.12h1.92v7.41L50.24,8.86a.15.15,0,0,0-.09,0h-3a.12.12,0,0,0-.12.12v.8a.12.12,0,0,0,.12.12h1.92v7.93H47.13a.12.12,0,0,0-.12.12v.8a.12.12,0,0,0,.12.12h5a.12.12,0,0,0,.12-.12v-.8a.12.12,0,0,0-.12-.12H50.18V10.41l8.27,8.39a.15.15,0,0,0,.09,0h1a.12.12,0,0,0,.12-.12V9.87h1.92a.12.12,0,0,0,.12-.12V9A.12.12,0,0,0,61.56,8.83Z"/><path class="cls-1" d="M69.3,8.83h-5a.12.12,0,0,0-.12.12v.8a.12.12,0,0,0,.12.12h1.92V17.8H64.33a.12.12,0,0,0-.12.12v.8a.12.12,0,0,0,.12.12h5a.12.12,0,0,0,.12-.12v-.8a.12.12,0,0,0-.12-.12H67.38V9.87H69.3a.12.12,0,0,0,.12-.12V9A.12.12,0,0,0,69.3,8.83Z"/><path class="cls-1" d="M86.64,8.83h-5a.12.12,0,0,0-.12.12v.8a.12.12,0,0,0,.12.12h1.92v7.41L75.32,8.86a.15.15,0,0,0-.09,0h-3a.12.12,0,0,0-.12.12.09.09,0,0,0,0,.05v.75a.12.12,0,0,0,.12.12h1.91v7.93H72.22a.12.12,0,0,0-.12.12v.8a.12.12,0,0,0,.12.12h5a.12.12,0,0,0,.12-.12v-.8a.12.12,0,0,0-.12-.12H75.27V10.41l8.27,8.39a.15.15,0,0,0,.09,0h1a.12.12,0,0,0,.12-.12V9.87h1.92a.12.12,0,0,0,.12-.12V9A.12.12,0,0,0,86.64,8.83Z"/><path class="cls-1" d="M102.23,13.76H97.55a.12.12,0,0,0-.12.12v.8a.12.12,0,0,0,.12.12H99.9v2.53a6.93,6.93,0,0,1-.7.26c-.29.09-.6.16-.89.23s-.64.11-1,.15-.7.05-1,.05a8.8,8.8,0,0,1-2.43-.31,4.93,4.93,0,0,1-1.71-.87,3.51,3.51,0,0,1-1-1.31,3.93,3.93,0,0,1-.34-1.67,4.7,4.7,0,0,1,.3-1.74,3.22,3.22,0,0,1,.93-1.29A4.63,4.63,0,0,1,93.69,10a8.45,8.45,0,0,1,2.4-.3,7.3,7.3,0,0,1,.87.05,6.22,6.22,0,0,1,.89.16,5.29,5.29,0,0,1,.81.25,4.19,4.19,0,0,1,.67.35,1.9,1.9,0,0,1,.44.41.79.79,0,0,1,.15.46v1.1a.12.12,0,0,0,.12.12h.8a.12.12,0,0,0,.12-.12V8.82a.12.12,0,0,0-.12-.12H100a.12.12,0,0,0-.12.12v.73c-.21-.1-.41-.19-.62-.27A9,9,0,0,0,98.38,9a8.43,8.43,0,0,0-1.09-.21A11.14,11.14,0,0,0,96,8.67,9.36,9.36,0,0,0,93.53,9a6.3,6.3,0,0,0-2,1,4.73,4.73,0,0,0-1.38,1.62,5,5,0,0,0-.5,2.3,4.91,4.91,0,0,0,.5,2.3,4.56,4.56,0,0,0,1.4,1.62,6.28,6.28,0,0,0,2.09,1,10,10,0,0,0,2.59.31,13.35,13.35,0,0,0,1.94-.13,7.71,7.71,0,0,0,1.7-.43v.25a.12.12,0,0,0,.12.12h.91a.12.12,0,0,0,.12-.12V14.81h1.19a.12.12,0,0,0,.12-.12v-.8A.08.08,0,0,0,102.23,13.76Z"/><path class="cls-1" d="M128.5,8.83h-3a.14.14,0,0,0-.11.06l-5.55,8.7-5.63-8.7a.11.11,0,0,0-.1-.06h-3A.12.12,0,0,0,111,9v.79a.12.12,0,0,0,.12.12H113v7.93h-1.92a.12.12,0,0,0-.12.12v.8a.12.12,0,0,0,.12.12h5a.12.12,0,0,0,.12-.12v-.8a.12.12,0,0,0-.12-.12h-1.92v-7l5.14,8a.11.11,0,0,0,.1.06h.79a.11.11,0,0,0,.1-.06l5.14-8v7h-1.92a.12.12,0,0,0-.12.12v.8a.12.12,0,0,0,.12.12h5a.12.12,0,0,0,.12-.12v-.8a.12.12,0,0,0-.12-.12h-1.92V9.87h1.92a.12.12,0,0,0,.12-.12V9C128.63,8.89,128.57,8.83,128.5,8.83Z"/><path class="cls-1" d="M144.75,17.81H143L138.29,8.9a.12.12,0,0,0-.11-.07H134a.12.12,0,0,0-.12.12v.8a.12.12,0,0,0,.12.12h2.49l-4.14,7.93h-1.8a.12.12,0,0,0-.12.12v.8a.12.12,0,0,0,.12.12h5a.12.12,0,0,0,.12-.12v-.8a.12.12,0,0,0-.12-.12h-1.92l1.19-2.27h5.74l1.17,2.27h-1.9a.12.12,0,0,0-.12.12v.8a.12.12,0,0,0,.12.12h5a.12.12,0,0,0,.12-.12v-.8A.16.16,0,0,0,144.75,17.81Zm-7.1-7.71,2.3,4.4h-4.61Z"/><path class="cls-1" d="M161.22,8.83h-5a.12.12,0,0,0-.12.12v.8a.12.12,0,0,0,.12.12h1.92v7.41L149.9,8.86a.15.15,0,0,0-.09,0h-3a.12.12,0,0,0-.12.12.07.07,0,0,0,0,.05v.75a.12.12,0,0,0,.12.12h1.92v7.93H146.8a.12.12,0,0,0-.12.12v.8a.12.12,0,0,0,.12.12h5a.12.12,0,0,0,.12-.12v-.8a.12.12,0,0,0-.12-.12h-1.92V10.41l8.26,8.39a.15.15,0,0,0,.09,0h1a.12.12,0,0,0,.12-.12V9.87h1.92a.12.12,0,0,0,.12-.12V9A.12.12,0,0,0,161.22,8.83Z"/><path class="cls-1" d="M190.86,9.63A3.71,3.71,0,0,0,189.5,9a8.33,8.33,0,0,0-2-.2H180.2a.12.12,0,0,0-.12.12.07.07,0,0,0,0,0v.76a.12.12,0,0,0,.12.12h1.91v7.93h-1.91a.12.12,0,0,0-.12.12v.8a.12.12,0,0,0,.12.12h5a.12.12,0,0,0,.12-.12v-.8a.12.12,0,0,0-.12-.12h-1.92v-2.7h4.25a8.88,8.88,0,0,0,2-.2,3.69,3.69,0,0,0,1.37-.6,2.55,2.55,0,0,0,.79-1A3.39,3.39,0,0,0,191.9,12a3.32,3.32,0,0,0-.25-1.35A2.23,2.23,0,0,0,190.86,9.63ZM190.68,12a2.45,2.45,0,0,1-.16.95,1.5,1.5,0,0,1-.43.58,2.07,2.07,0,0,1-.64.34,5.94,5.94,0,0,1-.8.16,7.42,7.42,0,0,1-.86,0h-4.52V9.93H187c.63,0,1.21,0,1.73.08a3.64,3.64,0,0,1,1.16.3,1.46,1.46,0,0,1,.64.61A2.43,2.43,0,0,1,190.68,12Z"/><path class="cls-1" d="M208.3,17.8h-2l-2.55-3.3a3.1,3.1,0,0,0,1.73-.9,2.63,2.63,0,0,0,.61-1.83,3,3,0,0,0-.24-1.28,2.22,2.22,0,0,0-.78-.93A3.61,3.61,0,0,0,203.71,9a10,10,0,0,0-1.94-.17h-6.91a.12.12,0,0,0-.12.12v.8a.12.12,0,0,0,.12.12h1.92v7.93h-1.92a.12.12,0,0,0-.12.12v.8a.12.12,0,0,0,.12.12h5a.12.12,0,0,0,.12-.12v-.8a.12.12,0,0,0-.12-.12h-1.92V14.68H202l.54,0,2.37,3.15h-1.3a.12.12,0,0,0-.12.12v.79a.12.12,0,0,0,.12.12h4.68a.12.12,0,0,0,.12-.12v-.8C208.43,17.86,208.37,17.8,208.3,17.8ZM197.94,9.93h2.91c.82,0,1.46,0,2,.07a4.07,4.07,0,0,1,1.24.28,1.26,1.26,0,0,1,.64.55,2,2,0,0,1,.19.95,2.19,2.19,0,0,1-.18,1,1.31,1.31,0,0,1-.65.54,4.34,4.34,0,0,1-1.26.27c-.5,0-1.15.07-2,.07h-2.88V9.93Z"/><path class="cls-1" d="M221.28,9.9a5.78,5.78,0,0,0-2-.94,9.72,9.72,0,0,0-2.47-.3,9.91,9.91,0,0,0-1.69.13,7.58,7.58,0,0,0-1.52.42,5.79,5.79,0,0,0-1.29.71,4.49,4.49,0,0,0-1.63,2.32,5.44,5.44,0,0,0-.23,1.63,5.3,5.3,0,0,0,.49,2.33,4.39,4.39,0,0,0,1.36,1.62,6.06,6.06,0,0,0,2,.94,9.94,9.94,0,0,0,2.49.3,9.66,9.66,0,0,0,2.47-.3,5.78,5.78,0,0,0,2-.94,4.56,4.56,0,0,0,1.35-1.62,5.07,5.07,0,0,0,.49-2.33,5,5,0,0,0-.51-2.34A4.16,4.16,0,0,0,221.28,9.9Zm.65,4a3.72,3.72,0,0,1-1.27,3.07,7.49,7.49,0,0,1-7.68,0,3.73,3.73,0,0,1-1.28-3.07A3.75,3.75,0,0,1,213,10.8a7.46,7.46,0,0,1,7.68,0A3.75,3.75,0,0,1,221.93,13.86Z"/><path class="cls-1" d="M236,8.83h-5.12a.12.12,0,0,0-.12.12v.79a.12.12,0,0,0,.12.12h2.07V15.5a2.82,2.82,0,0,1-.2,1.11,1.88,1.88,0,0,1-.55.73,2.56,2.56,0,0,1-.88.42,4.89,4.89,0,0,1-1.18.14,3.24,3.24,0,0,1-2.06-.56,2.1,2.1,0,0,1-.71-1.71.12.12,0,0,0-.12-.12h-.89a.12.12,0,0,0-.12.12,3.51,3.51,0,0,0,.28,1.47,2.72,2.72,0,0,0,.8,1,3.55,3.55,0,0,0,1.23.61,5.33,5.33,0,0,0,1.59.21,5.44,5.44,0,0,0,1.6-.21,3.68,3.68,0,0,0,1.25-.63,2.89,2.89,0,0,0,.83-1.06,3.35,3.35,0,0,0,.29-1.47V9.88H236a.12.12,0,0,0,.12-.12V9A.17.17,0,0,0,236,8.83Z"/><path class="cls-1" d="M249.34,15.56h-.8a.12.12,0,0,0-.12.12V17.8h-6.9V14.13h5.3a.12.12,0,0,0,.12-.12v-.83a.12.12,0,0,0-.12-.12h-5.3V9.94h6.8v2a.12.12,0,0,0,.12.12h.79a.12.12,0,0,0,.12-.12V9a.12.12,0,0,0-.12-.12H238.45a.12.12,0,0,0-.12.12v.8a.12.12,0,0,0,.12.12h1.92v7.93h-1.92a.12.12,0,0,0-.12.12v.8a.12.12,0,0,0,.12.12h10.89a.12.12,0,0,0,.12-.12V15.68A.11.11,0,0,0,249.34,15.56Z"/><path class="cls-1" d="M264.45,15.93h-1a.13.13,0,0,0-.12.08,2.45,2.45,0,0,1-.6.85,3.38,3.38,0,0,1-.92.62,5.52,5.52,0,0,1-1.19.38,7.24,7.24,0,0,1-1.37.13A7.86,7.86,0,0,1,257,17.7a4.52,4.52,0,0,1-1.59-.83,3.55,3.55,0,0,1-.95-1.29,4.42,4.42,0,0,1-.32-1.71,4.76,4.76,0,0,1,.3-1.71,3.28,3.28,0,0,1,.92-1.3A4.36,4.36,0,0,1,257,10a8.13,8.13,0,0,1,2.34-.29,7.39,7.39,0,0,1,1.54.16,4.83,4.83,0,0,1,1.3.46,2.55,2.55,0,0,1,.89.74,1.61,1.61,0,0,1,.32,1v.57a.13.13,0,0,0,.19.1h.69a.12.12,0,0,0,.12-.12V9a.12.12,0,0,0-.12-.12h-.8a.12.12,0,0,0-.12.12v.77l-.54-.3a5.79,5.79,0,0,0-.91-.39,7.27,7.27,0,0,0-1.17-.27,10.18,10.18,0,0,0-1.53-.11,9.33,9.33,0,0,0-2.47.32,6,6,0,0,0-2,1,4.65,4.65,0,0,0-1.33,1.63,5.09,5.09,0,0,0-.48,2.27,5.09,5.09,0,0,0,.47,2.27,4.57,4.57,0,0,0,1.32,1.63,6,6,0,0,0,2,1,9.14,9.14,0,0,0,2.43.32,8.68,8.68,0,0,0,2-.21,6.1,6.1,0,0,0,1.57-.6,4.32,4.32,0,0,0,1.87-2.11.13.13,0,0,0,0-.12C264.53,16,264.49,15.93,264.45,15.93Z"/><path class="cls-1" d="M278.33,8.83H267.67a.12.12,0,0,0-.12.12v3.52a.12.12,0,0,0,.12.12h.82a.12.12,0,0,0,.12-.12V9.9h3.83v7.9h-2.06a.12.12,0,0,0-.12.12v.8a.12.12,0,0,0,.12.12h5.26a.12.12,0,0,0,.12-.12v-.8a.12.12,0,0,0-.12-.12h-2.07V9.89h3.83v2.58a.12.12,0,0,0,.12.12h.8a.12.12,0,0,0,.12-.12V9A.11.11,0,0,0,278.33,8.83Z"/><polygon class="cls-1" points="169.89 11.39 169.89 11.27 169.89 11.16 169.86 11.04 169.86 10.92 169.83 10.83 169.83 10.71 169.81 10.59 169.78 10.47 169.75 10.35 169.75 10.23 169.72 10.17 169.72 10.11 169.7 10.05 169.7 9.99 169.66 9.94 169.64 9.87 169.64 9.82 169.61 9.76 169.61 9.7 169.58 9.64 169.55 9.61 169.55 9.55 169.53 9.49 169.5 9.43 169.5 9.37 169.47 9.31 169.41 9.22 169.38 9.1 169.33 8.98 169.27 8.9 169.22 8.78 169.19 8.65 169.13 8.57 169.02 8.36 168.94 8.12 168.88 8.03 168.83 7.91 168.74 7.7 168.63 7.5 168.55 7.26 168.46 7.05 168.35 6.84 168.32 6.72 168.27 6.63 168.21 6.51 168.16 6.43 168.1 6.31 168.04 6.19 167.96 5.98 167.85 5.77 167.74 5.56 167.63 5.36 167.51 5.15 167.4 4.94 167.29 4.73 167.18 4.53 167.07 4.32 166.95 4.11 166.84 3.9 166.78 3.81 166.73 3.72 166.67 3.6 166.62 3.51 166.56 3.39 166.48 3.31 166.42 3.22 166.37 3.1 166.31 3.01 166.23 2.92 166.17 2.83 166.09 2.74 166.03 2.62 165.95 2.53 165.81 2.35 165.67 2.18 165.61 2.09 165.53 2 165.45 1.91 165.39 1.82 165.33 1.7 165.25 1.61 165.19 1.52 165.11 1.43 165 1.22 164.94 1.13 164.88 1.08 164.86 1.01 164.83 0.98 164.8 0.92 164.77 0.9 164.72 0.84 164.69 0.8 164.66 0.75 164.61 0.72 164.58 0.66 164.55 0.63 164.5 0.57 164.41 0.48 164.35 0.42 164.27 0.33 164.19 0.24 164.11 0.15 163.94 0 164.8 1.58 165.67 3.13 165.86 3.54 165.97 3.72 166.09 3.93 166.2 4.14 166.28 4.32 166.4 4.53 166.51 4.73 166.59 4.91 166.7 5.12 166.78 5.33 166.9 5.54 166.98 5.74 167.04 5.83 167.09 5.92 167.12 6.04 167.18 6.13 167.21 6.25 167.26 6.34 167.32 6.46 167.35 6.55 167.4 6.67 167.43 6.75 167.49 6.87 167.51 6.96 167.54 7.08 167.6 7.2 167.63 7.29 167.68 7.41 167.71 7.5 167.74 7.61 167.76 7.73 167.82 7.82 167.85 7.94 167.87 8.03 167.91 8.15 167.93 8.27 167.96 8.36 167.99 8.48 168.02 8.6 168.04 8.69 168.07 8.81 168.1 8.92 168.13 9.04 168.16 9.13 168.18 9.25 168.21 9.37 168.21 9.49 168.24 9.58 168.27 9.7 168.27 9.82 168.3 9.94 168.32 10.03 168.32 10.14 168.35 10.26 168.35 10.38 168.38 10.5 168.38 10.59 168.41 10.71 168.41 10.83 168.41 10.95 168.44 11.06 168.44 11.18 168.44 11.27 168.46 11.39 168.46 11.51 168.46 11.63 168.46 11.75 168.46 11.84 168.46 11.96 168.46 12.08 168.46 12.19 168.46 12.31 168.46 12.43 168.46 12.52 168.46 12.64 168.44 12.76 168.44 12.88 168.44 13 168.41 13.12 168.41 13.21 168.41 13.32 168.38 13.44 168.38 13.56 168.35 13.68 168.35 13.77 168.32 13.89 168.32 14.01 168.3 14.13 168.27 14.22 168.27 14.33 168.24 14.45 168.21 14.57 168.18 14.66 168.18 14.78 168.16 14.9 168.13 15.02 168.1 15.11 168.07 15.23 168.04 15.35 168.02 15.44 167.99 15.55 167.96 15.67 167.93 15.79 167.91 15.88 167.85 16.12 167.79 16.33 167.71 16.54 167.65 16.75 167.6 16.98 167.51 17.19 167.46 17.4 167.4 17.6 167.32 17.84 167.26 18.05 167.18 18.26 167.12 18.47 167.04 18.71 166.95 18.91 166.9 19.12 166.82 19.33 166.76 19.54 166.59 19.99 166.45 20.4 166.31 20.82 166.14 21.26 166.01 21.68 165.84 22.09 165.67 22.51 165.53 22.93 165.36 23.38 165.19 23.79 164.88 24.62 164.58 25.49 163.94 27.15 163.99 27.15 164.05 27.12 164.11 27.09 164.13 27.09 164.16 27.09 164.16 27.06 164.19 27.06 164.22 27.06 164.24 27.03 164.27 27.03 164.3 27 164.33 27 164.33 26.97 164.35 26.94 164.38 26.94 164.41 26.91 164.41 26.88 164.44 26.85 164.47 26.83 164.5 26.79 164.5 26.76 164.52 26.74 164.55 26.71 164.58 26.65 164.61 26.59 164.66 26.46 164.72 26.38 164.77 26.26 164.83 26.17 164.88 26.05 164.94 25.96 165.03 25.75 165.14 25.54 165.22 25.31 165.33 25.1 165.45 24.89 165.53 24.68 165.64 24.48 165.73 24.24 165.84 24.03 166.03 23.61 166.2 23.17 166.4 22.75 166.59 22.3 166.95 21.44 167.15 21 167.35 20.58 167.54 20.13 167.71 19.72 167.91 19.27 168.02 19.06 168.1 18.85 168.18 18.62 168.3 18.41 168.38 18.2 168.46 17.96 168.49 17.87 168.55 17.76 168.57 17.64 168.63 17.55 168.66 17.43 168.72 17.31 168.74 17.19 168.8 17.1 168.88 16.86 168.94 16.63 169.02 16.42 169.11 16.18 169.16 15.97 169.25 15.74 169.3 15.5 169.38 15.29 169.41 15.17 169.44 15.05 169.47 14.93 169.5 14.81 169.53 14.72 169.55 14.6 169.58 14.48 169.61 14.36 169.64 14.24 169.66 14.13 169.7 14.01 169.72 13.89 169.75 13.77 169.75 13.65 169.78 13.53 169.81 13.44 169.81 13.32 169.83 13.21 169.83 13.09 169.86 12.97 169.86 12.85 169.89 12.73 169.89 12.61 169.89 12.49 169.89 12.37 169.92 12.26 169.92 12.13 169.92 12.01 169.92 11.9 169.92 11.78 169.92 11.63 169.89 11.51 169.89 11.39"/><polygon class="cls-1" points="172.74 12.31 172.74 12.19 172.74 12.08 172.74 11.96 172.74 11.84 172.74 11.75 172.74 11.63 172.74 11.51 172.77 11.39 172.77 11.27 172.77 11.18 172.77 11.06 172.79 10.95 172.79 10.83 172.79 10.71 172.82 10.59 172.82 10.5 172.85 10.38 172.85 10.26 172.88 10.14 172.88 10.03 172.91 9.94 172.93 9.82 172.93 9.7 172.96 9.58 172.99 9.49 172.99 9.37 173.02 9.25 173.05 9.13 173.07 9.04 173.1 8.92 173.13 8.81 173.16 8.69 173.19 8.6 173.22 8.48 173.24 8.36 173.27 8.27 173.3 8.15 173.33 8.03 173.35 7.94 173.38 7.82 173.44 7.73 173.46 7.61 173.5 7.5 173.52 7.41 173.58 7.29 173.61 7.2 173.66 7.08 173.69 6.96 173.72 6.87 173.77 6.75 173.8 6.67 173.86 6.55 173.89 6.46 173.94 6.34 174 6.25 174.03 6.13 174.08 6.04 174.11 5.92 174.17 5.83 174.22 5.74 174.31 5.54 174.42 5.33 174.5 5.12 174.61 4.91 174.7 4.73 174.81 4.53 174.92 4.32 175 4.14 175.12 3.93 175.23 3.72 175.34 3.54 175.53 3.13 176.4 1.58 177.27 0 177.1 0.15 177.02 0.24 176.93 0.33 176.85 0.42 176.79 0.48 176.71 0.57 176.65 0.63 176.62 0.66 176.6 0.72 176.54 0.75 176.51 0.8 176.49 0.84 176.43 0.9 176.4 0.92 176.37 0.98 176.34 1.01 176.32 1.08 176.26 1.13 176.21 1.22 176.09 1.43 176.01 1.52 175.95 1.61 175.9 1.7 175.81 1.82 175.76 1.91 175.68 2 175.62 2.09 175.53 2.18 175.4 2.35 175.25 2.53 175.17 2.62 175.12 2.74 175.03 2.83 174.97 2.92 174.89 3.01 174.84 3.1 174.78 3.22 174.72 3.31 174.64 3.39 174.59 3.51 174.53 3.6 174.47 3.72 174.42 3.81 174.36 3.9 174.25 4.11 174.14 4.32 174.03 4.53 173.91 4.73 173.8 4.94 173.69 5.15 173.58 5.36 173.46 5.56 173.35 5.77 173.24 5.98 173.16 6.19 173.1 6.31 173.05 6.43 172.99 6.51 172.93 6.63 172.91 6.72 172.85 6.84 172.74 7.05 172.65 7.26 172.57 7.5 172.46 7.7 172.38 7.91 172.32 8.03 172.26 8.12 172.18 8.36 172.07 8.57 172.01 8.65 171.99 8.78 171.93 8.9 171.87 8.98 171.82 9.1 171.79 9.22 171.73 9.31 171.73 9.37 171.71 9.43 171.68 9.49 171.65 9.55 171.65 9.61 171.62 9.64 171.6 9.7 171.6 9.76 171.56 9.82 171.56 9.87 171.54 9.94 171.51 9.99 171.51 10.05 171.48 10.11 171.48 10.17 171.48 10.23 171.45 10.35 171.43 10.47 171.4 10.59 171.37 10.71 171.37 10.83 171.34 10.92 171.34 11.04 171.31 11.16 171.31 11.27 171.31 11.39 171.31 11.51 171.29 11.63 171.29 11.78 171.29 11.9 171.29 12.01 171.29 12.13 171.29 12.26 171.31 12.37 171.31 12.49 171.31 12.61 171.31 12.73 171.34 12.85 171.34 12.97 171.37 13.09 171.37 13.21 171.4 13.32 171.4 13.44 171.43 13.53 171.45 13.65 171.45 13.77 171.48 13.89 171.51 14.01 171.54 14.13 171.56 14.24 171.6 14.36 171.62 14.48 171.65 14.6 171.68 14.72 171.71 14.81 171.73 14.93 171.76 15.05 171.79 15.17 171.82 15.29 171.9 15.5 171.96 15.74 172.04 15.97 172.09 16.18 172.18 16.42 172.26 16.63 172.32 16.86 172.41 17.1 172.46 17.19 172.49 17.31 172.54 17.43 172.57 17.55 172.63 17.64 172.65 17.76 172.71 17.87 172.74 17.96 172.82 18.2 172.93 18.41 173.02 18.62 173.1 18.85 173.19 19.06 173.3 19.27 173.5 19.72 173.66 20.13 173.86 20.58 174.05 21 174.25 21.44 174.61 22.3 174.81 22.75 175 23.17 175.2 23.61 175.37 24.03 175.48 24.24 175.56 24.48 175.68 24.68 175.76 24.89 175.87 25.1 175.98 25.31 176.07 25.54 176.18 25.75 176.26 25.96 176.32 26.05 176.37 26.17 176.43 26.26 176.49 26.38 176.54 26.46 176.6 26.59 176.62 26.65 176.65 26.71 176.68 26.74 176.71 26.76 176.71 26.79 176.74 26.83 176.76 26.85 176.79 26.88 176.82 26.91 176.82 26.94 176.85 26.94 176.87 26.97 176.87 27 176.9 27 176.93 27.03 176.96 27.03 176.98 27.06 177.02 27.06 177.04 27.06 177.04 27.09 177.07 27.09 177.1 27.09 177.15 27.12 177.21 27.15 177.27 27.15 176.62 25.49 176.32 24.62 176.01 23.79 175.84 23.38 175.68 22.93 175.53 22.51 175.37 22.09 175.23 21.68 175.06 21.26 174.92 20.82 174.75 20.4 174.61 19.99 174.44 19.54 174.39 19.33 174.31 19.12 174.25 18.91 174.17 18.71 174.08 18.47 174.03 18.26 173.94 18.05 173.89 17.84 173.8 17.6 173.74 17.4 173.69 17.19 173.61 16.98 173.55 16.75 173.5 16.54 173.41 16.33 173.35 16.12 173.3 15.88 173.27 15.79 173.24 15.67 173.22 15.55 173.19 15.44 173.16 15.35 173.13 15.23 173.1 15.11 173.07 15.02 173.05 14.9 173.05 14.78 173.02 14.66 172.99 14.57 172.96 14.45 172.93 14.33 172.93 14.22 172.91 14.13 172.88 14.01 172.88 13.89 172.85 13.77 172.85 13.68 172.82 13.56 172.82 13.44 172.79 13.32 172.79 13.21 172.79 13.12 172.77 13 172.77 12.88 172.77 12.76 172.77 12.64 172.74 12.52 172.74 12.43 172.74 12.31"/><path class="cls-1" d="M170.63,1.84c-.88.52-1.78,1-2.7,1.45a21.69,21.69,0,0,1,2.7,4.1,21.86,21.86,0,0,1,2.7-4.1C172.41,2.84,171.51,2.36,170.63,1.84Zm-1.95,1.53a7.51,7.51,0,0,1,1.95-1.05,7.36,7.36,0,0,1,2,1.05,12.51,12.51,0,0,1-2,2.76A12.51,12.51,0,0,1,168.68,3.37Z"/></g></g></svg>